<svg width="20" height="20" viewBox="0 0 20 20" fill="none" xmlns="http://www.w3.org/2000/svg">
<g clip-path="url(#clip0_0_535)">
<path d="M3.65188 -0.686279C1.6289 -0.686279 0 0.942617 0 2.96559V15.6618C0 17.6848 1.6289 19.3137 3.65188 19.3137H10.5331V11.495H8.46564V8.67996H10.5331V6.27497C10.5331 4.38547 11.7547 2.65059 14.5688 2.65059C15.7081 2.65059 16.5506 2.75997 16.5506 2.75997L16.4844 5.38873C16.4844 5.38873 15.6251 5.38061 14.6875 5.38061C13.6727 5.38061 13.51 5.84817 13.51 6.62437V8.67998H16.565L16.4319 11.495H13.51V19.3137H16.3481C18.3711 19.3137 20 17.6848 20 15.6618V2.96561C20 0.942637 18.3711 -0.686259 16.3481 -0.686259H3.65186L3.65188 -0.686279Z" fill="#F5F5F5"/>
</g>
<defs>
<clipPath id="clip0_0_535">
<rect width="20" height="20" fill="white"/>
</clipPath>
</defs>
</svg>
