<svg width="25" height="26" viewBox="0 0 25 26" fill="none" xmlns="http://www.w3.org/2000/svg">
<g clip-path="url(#clip0_0_577)">
<path d="M4.56485 0.00317383C2.03612 0.00317383 0 2.04031 0 4.57028V20.4485C0 22.9784 2.03612 25.0156 4.56485 25.0156H13.1664V15.2373H10.5821V11.7168H13.1664V8.70906C13.1664 6.34601 14.6934 4.17634 18.211 4.17634C19.6352 4.17634 20.6883 4.31313 20.6883 4.31313L20.6055 7.60071C20.6055 7.60071 19.5314 7.59055 18.3594 7.59055C17.0909 7.59055 16.8875 8.17529 16.8875 9.14602V11.7168H20.7063L20.5399 15.2373H16.8875V25.0156H20.4352C22.9639 25.0156 25 22.9785 25 20.4485V4.57031C25 2.04033 22.9639 0.00319884 20.4352 0.00319884H4.56483L4.56485 0.00317383Z" fill="#9C2482"/>
</g>
<defs>
<clipPath id="clip0_0_577">
<rect width="25" height="25.0124" fill="white" transform="translate(0 0.861328)"/>
</clipPath>
</defs>
</svg>
