<svg width="70" height="70" viewBox="0 0 70 70" fill="none" xmlns="http://www.w3.org/2000/svg">
<path d="M30.625 36.2906L24.9594 30.625L21.875 33.7094L30.625 42.4594L48.125 24.9594L45.0406 21.875L30.625 36.2906Z" fill="#9C2482"/>
<path d="M35 65.625L21.49 58.4216C17.6385 56.3726 14.4177 53.3134 12.1733 49.5725C9.92879 45.8316 8.74536 41.5501 8.75 37.1875V8.75C8.75116 7.59003 9.21247 6.47791 10.0327 5.65769C10.8529 4.83747 11.965 4.37616 13.125 4.375H56.875C58.035 4.37616 59.1471 4.83747 59.9673 5.65769C60.7875 6.47791 61.2488 7.59003 61.25 8.75V37.1875C61.2546 41.5501 60.0712 45.8316 57.8267 49.5725C55.5823 53.3134 52.3615 56.3726 48.51 58.4216L35 65.625ZM13.125 8.75V37.1875C13.1214 40.7571 14.0899 44.2602 15.9267 47.321C17.7634 50.3817 20.399 52.8845 23.5506 54.5606L35 60.6659L46.4494 54.5628C49.6013 52.8865 52.2371 50.3834 54.0739 47.3222C55.9107 44.2611 56.879 40.7574 56.875 37.1875V8.75H13.125Z" fill="#9C2482"/>
</svg>
