<svg width="70" height="70" viewBox="0 0 70 70" fill="none" xmlns="http://www.w3.org/2000/svg">
<path d="M37.2642 4.45757C36.5145 4.40222 35.763 4.3745 35.0113 4.37445V0C35.8711 0.000419193 36.7305 0.0325203 37.588 0.096238L37.2642 4.45757ZM46.0311 6.42607C44.6288 5.88497 43.1886 5.4478 41.7221 5.11811L42.6801 0.848644C44.3556 1.22485 46.0049 1.72353 47.606 2.34471L46.0311 6.42607ZM52.0245 9.53193C51.399 9.11483 50.7584 8.72086 50.104 8.35083L52.2607 4.54506C53.7564 5.39254 55.1879 6.34875 56.5435 7.40595L53.8531 10.8574C53.26 10.3947 52.65 9.95405 52.0245 9.53631V9.53193ZM60.0476 17.3622C59.1823 16.1329 58.2275 14.969 57.191 13.8801L60.3582 10.8618C61.5394 12.1085 62.6331 13.4427 63.6261 14.8425L60.0476 17.3622ZM63.3024 23.2765C63.0153 22.5829 62.703 21.9001 62.3662 21.2292L66.2728 19.2607C67.0454 20.7965 67.7034 22.3873 68.2414 24.0201L64.0855 25.3893C63.8504 24.6757 63.5892 23.9709 63.3024 23.2765ZM65.621 34.2432C65.5856 32.7399 65.4394 31.2412 65.1835 29.7594L69.4926 29.0157C69.7857 30.7043 69.9563 32.4191 70.0001 34.1339L65.6254 34.2432H65.621ZM65.0479 40.9711C65.1923 40.2275 65.3104 39.4882 65.4023 38.7402L69.7463 39.2782C69.5362 40.9849 69.1999 42.6737 68.7402 44.3307L64.5229 43.1627C64.7242 42.4409 64.8992 41.7104 65.0479 40.9711ZM60.8832 51.378C61.6881 50.1094 62.3968 48.7795 63.0093 47.4059L67.0078 49.1776C66.3078 50.7524 65.4985 52.266 64.5798 53.7183L60.8832 51.378ZM56.666 56.6492C57.1997 56.1155 57.7116 55.5643 58.1971 54.9956L61.5132 57.8521C60.9516 58.5032 60.3665 59.1335 59.7589 59.7419L56.666 56.6492Z" fill="#9C2482"/>
<path d="M35.0112 4.37445C29.9754 4.37482 25.0174 5.617 20.5764 7.99098C16.1353 10.365 12.3483 13.7975 9.55075 17.9845C6.75318 22.1715 5.03141 26.9837 4.53795 31.995C4.04448 37.0063 4.79455 42.0619 6.72172 46.7141C8.64888 51.3663 11.6937 55.4715 15.5864 58.666C19.4791 61.8605 24.0996 64.0458 29.0386 65.0283C33.9776 66.0108 39.0827 65.7601 43.9017 64.2986C48.7207 62.837 53.1049 60.2096 56.6659 56.6492L59.7588 59.7419C55.6892 63.8135 50.6781 66.8186 45.1694 68.4908C39.6608 70.163 33.8247 70.4507 28.1782 69.3284C22.5318 68.2062 17.2493 65.7086 12.7989 62.057C8.34851 58.4054 4.86754 53.7125 2.66444 48.3941C0.461343 43.0757 -0.395865 37.2961 0.168766 31.5672C0.733398 25.8384 2.70244 20.3373 5.90142 15.5513C9.10041 10.7653 13.4306 6.84213 18.5082 4.1295C23.5859 1.41686 29.2543 -0.00152551 35.0112 1.23123e-06V4.37445Z" fill="#9C2482"/>
<path d="M32.8241 13.1233C33.4042 13.1233 33.9605 13.3537 34.3708 13.7639C34.781 14.1741 35.0114 14.7304 35.0114 15.3105V38.1014L49.2204 46.2204C49.7095 46.5154 50.0637 46.99 50.2075 47.5427C50.3512 48.0955 50.2731 48.6825 49.9897 49.1784C49.7063 49.6743 49.2402 50.0396 48.691 50.1964C48.1418 50.3532 47.553 50.289 47.0506 50.0174L31.7391 41.2685C31.4044 41.0773 31.1261 40.801 30.9325 40.4676C30.7389 40.1342 30.6368 39.7555 30.6367 39.37V15.3105C30.6367 14.7304 30.8672 14.1741 31.2774 13.7639C31.6876 13.3537 32.2439 13.1233 32.8241 13.1233Z" fill="#9C2482"/>
</svg>
