<svg width="30" height="30" viewBox="0 0 30 30" fill="none" xmlns="http://www.w3.org/2000/svg">
<path d="M8.275 13.4815C10.075 17.0185 12.975 19.9056 16.5125 21.7179L19.2625 18.9683C19.6 18.6308 20.1 18.5183 20.5375 18.6683C21.9375 19.1308 23.45 19.3807 25 19.3807C25.6875 19.3807 26.25 19.9431 26.25 20.6305V24.9925C26.25 25.6799 25.6875 26.2423 25 26.2423C13.2625 26.2423 3.75 16.7311 3.75 4.99519C3.75 4.30778 4.3125 3.74536 5 3.74536H9.375C10.0625 3.74536 10.625 4.30778 10.625 4.99519C10.625 6.55748 10.875 8.05727 11.3375 9.45708C11.475 9.89452 11.375 10.382 11.025 10.7319L8.275 13.4815Z" fill="#F5F5F5"/>
</svg>
