<svg width="70" height="70" viewBox="0 0 70 70" fill="none" xmlns="http://www.w3.org/2000/svg">
<path d="M35 35C36.6042 35 37.9779 34.4284 39.1212 33.285C40.2646 32.1417 40.8353 30.7689 40.8333 29.1667C40.8333 27.5625 40.2617 26.1888 39.1183 25.0455C37.975 23.9021 36.6022 23.3314 35 23.3334C33.3958 23.3334 32.0221 23.905 30.8787 25.0484C29.7354 26.1917 29.1647 27.5645 29.1667 29.1667C29.1667 30.7709 29.7383 32.1446 30.8817 33.288C32.025 34.4313 33.3978 35.002 35 35ZM35 56.4375C40.9305 50.9931 45.3298 46.0464 48.1979 41.5975C51.066 37.1487 52.5 33.1995 52.5 29.75C52.5 24.4514 50.8103 20.1134 47.4308 16.7359C44.0514 13.3584 39.9078 11.6687 35 11.6667C30.0903 11.6667 25.9457 13.3564 22.5662 16.7359C19.1868 20.1153 17.498 24.4534 17.5 29.75C17.5 33.2014 18.934 37.1516 21.8021 41.6005C24.6701 46.0493 29.0694 50.995 35 56.4375ZM35 63.073C34.6111 63.073 34.2222 63 33.8333 62.8542C33.4444 62.7084 33.1042 62.5139 32.8125 62.2709C25.7153 56 20.4167 50.1784 16.9167 44.8059C13.4167 39.4334 11.6667 34.4148 11.6667 29.75C11.6667 22.4584 14.0126 16.6493 18.7046 12.323C23.3965 7.99657 28.8283 5.83337 35 5.83337C41.1736 5.83337 46.6064 7.99657 51.2983 12.323C55.9903 16.6493 58.3353 22.4584 58.3333 29.75C58.3333 34.4167 56.5833 39.4363 53.0833 44.8088C49.5833 50.1813 44.2847 56.002 37.1875 62.2709C36.8958 62.5139 36.5555 62.7084 36.1667 62.8542C35.7778 63 35.3889 63.073 35 63.073Z" fill="#9C2482"/>
</svg>
