<svg width="25" height="25" viewBox="0 0 25 25" fill="none" xmlns="http://www.w3.org/2000/svg">
<path fill-rule="evenodd" clip-rule="evenodd" d="M7.34659 0.0779297C8.67955 0.016566 9.10455 0.00292969 12.5 0.00292969C15.8955 0.00292969 16.3205 0.0177024 17.6523 0.0779297C18.9841 0.138157 19.8932 0.350657 20.6886 0.658612C21.5216 0.973384 22.2773 1.46543 22.9023 2.10179C23.5386 2.72566 24.0295 3.4802 24.3432 4.31429C24.6523 5.10975 24.8636 6.01884 24.925 7.34838C24.9864 8.68361 25 9.10861 25 12.5029C25 15.8984 24.9852 16.3234 24.925 17.6563C24.8648 18.9859 24.6523 19.895 24.3432 20.6904C24.0295 21.5246 23.5378 22.2804 22.9023 22.9052C22.2773 23.5416 21.5216 24.0325 20.6886 24.3461C19.8932 24.6552 18.9841 24.8666 17.6545 24.9279C16.3205 24.9893 15.8955 25.0029 12.5 25.0029C9.10455 25.0029 8.67955 24.9882 7.34659 24.9279C6.01705 24.8677 5.10795 24.6552 4.3125 24.3461C3.47832 24.0324 2.72252 23.5407 2.09773 22.9052C1.4618 22.281 0.969676 21.5255 0.655682 20.6916C0.347727 19.8961 0.136364 18.987 0.075 17.6575C0.0136363 16.3222 0 15.8972 0 12.5029C0 9.10748 0.0147727 8.68248 0.075 7.35066C0.135227 6.01884 0.347727 5.10975 0.655682 4.31429C0.97014 3.48029 1.46264 2.72488 2.09886 2.10066C2.72277 1.46486 3.47781 0.972752 4.31136 0.658612C5.10682 0.350657 6.01591 0.139293 7.34545 0.0779297H7.34659ZM17.5511 2.32793C16.233 2.2677 15.8375 2.2552 12.5 2.2552C9.1625 2.2552 8.76705 2.2677 7.44886 2.32793C6.22955 2.38361 5.56818 2.58702 5.12727 2.75861C4.54432 2.98588 4.12727 3.2552 3.68977 3.6927C3.27505 4.09617 2.95589 4.58734 2.75568 5.1302C2.58409 5.57111 2.38068 6.23248 2.325 7.45179C2.26477 8.76997 2.25227 9.16543 2.25227 12.5029C2.25227 15.8404 2.26477 16.2359 2.325 17.5541C2.38068 18.7734 2.58409 19.4347 2.75568 19.8757C2.95568 20.4177 3.275 20.9097 3.68977 21.3132C4.09318 21.7279 4.58523 22.0472 5.12727 22.2472C5.56818 22.4188 6.22955 22.6222 7.44886 22.6779C8.76705 22.7382 9.16136 22.7507 12.5 22.7507C15.8386 22.7507 16.233 22.7382 17.5511 22.6779C18.7705 22.6222 19.4318 22.4188 19.8727 22.2472C20.4557 22.02 20.8727 21.7507 21.3102 21.3132C21.725 20.9097 22.0443 20.4177 22.2443 19.8757C22.4159 19.4347 22.6193 18.7734 22.675 17.5541C22.7352 16.2359 22.7477 15.8404 22.7477 12.5029C22.7477 9.16543 22.7352 8.76997 22.675 7.45179C22.6193 6.23248 22.4159 5.57111 22.2443 5.1302C22.017 4.54725 21.7477 4.1302 21.3102 3.6927C20.9067 3.27801 20.4156 2.95885 19.8727 2.75861C19.4318 2.58702 18.7705 2.38361 17.5511 2.32793ZM10.9034 16.3563C11.7951 16.7275 12.7879 16.7776 13.7124 16.4981C14.6369 16.2185 15.4357 15.6267 15.9723 14.8237C16.5089 14.0206 16.7501 13.0562 16.6546 12.0951C16.5591 11.134 16.133 10.2359 15.4489 9.55407C15.0128 9.11824 14.4855 8.78453 13.9049 8.57696C13.3244 8.36939 12.705 8.29311 12.0915 8.35363C11.4779 8.41415 10.8854 8.60995 10.3566 8.92694C9.82779 9.24393 9.37584 9.67423 9.0333 10.1869C8.69075 10.6995 8.46612 11.2817 8.37559 11.8915C8.28505 12.5014 8.33085 13.1237 8.5097 13.7137C8.68855 14.3038 8.996 14.8468 9.40991 15.3038C9.82382 15.7607 10.3339 16.1202 10.9034 16.3563ZM7.95682 7.95975C8.55344 7.36313 9.26173 6.88986 10.0412 6.56698C10.8208 6.24409 11.6563 6.0779 12.5 6.0779C13.3437 6.0779 14.1792 6.24409 14.9588 6.56698C15.7383 6.88986 16.4466 7.36313 17.0432 7.95975C17.6398 8.55637 18.1131 9.26466 18.436 10.0442C18.7588 10.8237 18.925 11.6592 18.925 12.5029C18.925 13.3467 18.7588 14.1822 18.436 14.9617C18.1131 15.7412 17.6398 16.4495 17.0432 17.0461C15.8383 18.251 14.204 18.928 12.5 18.928C10.796 18.928 9.16175 18.251 7.95682 17.0461C6.75189 15.8412 6.07497 14.207 6.07497 12.5029C6.07497 10.7989 6.75189 9.16467 7.95682 7.95975ZM20.35 7.03475C20.4978 6.89528 20.6162 6.72757 20.6981 6.54154C20.7799 6.35551 20.8236 6.15494 20.8266 5.95171C20.8296 5.74849 20.7917 5.54673 20.7153 5.3584C20.6389 5.17006 20.5255 4.99896 20.3818 4.85525C20.2381 4.71153 20.067 4.59811 19.8786 4.5217C19.6903 4.44529 19.4885 4.40745 19.2853 4.41041C19.0821 4.41337 18.8815 4.45708 18.6955 4.53895C18.5095 4.62081 18.3417 4.73917 18.2023 4.88702C17.931 5.17455 17.7825 5.55648 17.7883 5.95171C17.7941 6.34695 17.9536 6.72438 18.2331 7.00389C18.5126 7.28339 18.8901 7.44296 19.2853 7.44872C19.6805 7.45449 20.0625 7.30599 20.35 7.03475Z" fill="#9C2482"/>
</svg>
