<svg width="20" height="20" viewBox="0 0 20 20" fill="none" xmlns="http://www.w3.org/2000/svg">
<path d="M17.9452 10.4833C17.9585 10.6223 17.9585 10.7605 17.9585 10.8987C17.9585 15.1273 13.8337 20 6.29554 20C3.97313 20 1.81559 19.4751 0 18.5634C0.329737 18.5928 0.647262 18.6032 0.99023 18.6032C2.83533 18.6066 4.62818 18.1252 6.07979 17.2365C5.22432 17.2244 4.39505 17.0042 3.70775 16.6065C3.02046 16.2089 2.50945 15.6537 2.24608 15.0185C2.49949 15.0479 2.75392 15.0678 3.02056 15.0678C3.38795 15.0678 3.75738 15.028 4.10035 14.959C3.17195 14.8127 2.33714 14.42 1.73786 13.8477C1.13857 13.2755 0.811819 12.5589 0.813149 11.8198V11.7801C1.35966 12.0176 1.99369 12.1661 2.66538 12.1859C2.10268 11.8941 1.64128 11.4982 1.32235 11.0335C1.00342 10.5687 3.01986 0.555506 3.02056 0.0283287C3.02056 -0.565669 1.0401 8.38369 1.39528 7.90881C2.42534 8.8975 3.71006 9.70634 5.16623 10.2829C6.6224 10.8595 8.21755 11.1911 9.84836 11.256C9.78526 11.0178 9.74659 10.7708 9.74659 10.523C9.74632 10.1029 9.85217 9.68688 10.0581 9.2987C10.264 8.91052 10.5659 8.55782 10.9467 8.26075C11.3274 7.96368 11.7794 7.72808 12.2769 7.5674C12.7743 7.40673 13.3075 7.32413 13.8459 7.32434C15.0265 7.32434 16.092 7.71028 16.841 8.33446C17.7588 8.19598 18.6389 7.93456 19.4423 7.56178C19.1364 8.30096 14.7016 -0.368646 13.8459 0.0283287C14.6599 -0.0441113 19.2494 9.08525 20 8.82919C19.4394 9.46694 18.7447 10.0262 17.9452 10.4833Z" fill="#F5F5F5"/>
</svg>
