<svg width="30" height="33" viewBox="0 0 30 33" fill="none" xmlns="http://www.w3.org/2000/svg">
<path d="M26.9179 16.9811C26.9377 17.2062 26.9377 17.43 26.9377 17.6539C26.9377 24.5035 20.7506 32.3964 9.44331 32.3964C5.9597 32.3964 2.72339 31.5462 0 30.0695C0.494606 30.1171 0.970894 30.1338 1.48535 30.1338C4.25299 30.1394 6.94226 29.3596 9.11968 27.92C7.83649 27.9004 6.59257 27.5437 5.56163 26.8996C4.53068 26.2555 3.76417 25.3562 3.36912 24.3273C3.74924 24.3749 4.13088 24.4071 4.53084 24.4071C5.08192 24.4071 5.63607 24.3427 6.15052 24.2308C4.75793 23.9939 3.50571 23.3579 2.60679 22.4309C1.70786 21.5039 1.21773 20.3431 1.21972 19.146V19.0817C2.03949 19.4663 2.99054 19.7068 3.99807 19.739C3.15401 19.2664 2.46192 18.6251 1.98352 17.8723C1.50513 17.1195 4.52979 0.89982 4.53084 0.0458874C4.53084 -0.916282 1.56015 13.5801 2.09292 12.8109C3.63801 14.4124 5.56509 15.7225 7.74934 16.6565C9.9336 17.5905 12.3263 18.1275 14.7725 18.2327C14.6779 17.8468 14.6199 17.4468 14.6199 17.0454C14.6195 16.3649 14.7783 15.691 15.0871 15.0622C15.396 14.4335 15.8489 13.8621 16.42 13.3809C16.9911 12.8997 17.6691 12.5181 18.4153 12.2578C19.1615 11.9976 19.9613 11.8638 20.7689 11.8641C22.5397 11.8641 24.138 12.4893 25.2616 13.5003C26.6382 13.276 27.9583 12.8526 29.1634 12.2487C28.7046 13.4461 22.0523 -0.59714 20.7689 0.0458874C21.9898 -0.0714523 28.8741 14.7165 30 14.3017C29.1591 15.3347 28.117 16.2406 26.9179 16.9811Z" fill="#9C2482"/>
</svg>
