<svg width="290" height="206" viewBox="0 0 290 206" fill="none" xmlns="http://www.w3.org/2000/svg">
<path d="M105.13 12.455C113.84 19.6767 132.264 42.7078 136.277 77.0583" stroke="#9C2482"/>
<path d="M117.777 34.1202C123.352 44.4296 134.772 67.3874 135.859 76.7443" stroke="#9C2482"/>
<path d="M155.509 125.962C160.492 133.576 174.01 151.537 188.224 162.463C191.987 168.56 198.384 182.857 193.869 191.272" stroke="#9C2482"/>
<path d="M159.272 125.334C161.223 130.227 166.547 140.861 172.233 144.252" stroke="#9C2482"/>
<path d="M172.128 144.252C177.772 148.857 188.956 158.962 188.538 162.542" stroke="#9C2482"/>
<path d="M154.046 118.662C157.077 122.168 164.812 126.841 171.501 117.484M171.501 117.484C171.675 114.266 173.09 109.289 177.354 115.129C177.737 120.049 177.647 129.51 174.218 128.003C174.462 124.497 174.26 117.484 171.501 117.484Z" stroke="#9C2482"/>
<path d="M173.905 121.488C169.794 123.869 160.317 127.705 155.3 124" stroke="#9C2482"/>
<path d="M171.188 83.1025C170.038 85.5621 167.801 92.7577 168.052 101.863C167.704 105.527 165.585 112.759 159.899 112.382" stroke="#9C2482"/>
<path d="M178.608 110.734C178.608 110.734 174.971 108.112 160.84 112.382" stroke="#9C2482"/>
<path d="M155.3 84.28C157.495 94.4585 160.568 114.596 155.3 113.717" stroke="#9C2482"/>
<path d="M155.3 75.6453C151.621 71.1238 147.566 72.3484 145.998 73.5259C150.262 75.5354 153.14 81.0616 154.046 83.5735C158.06 87.467 161.293 85.8238 162.408 84.5155C161.655 80.5592 157.356 76.9536 155.3 75.6453Z" stroke="#9C2482"/>
<path d="M153.419 82.0036C146.52 91.3448 156.22 112.57 151.537 111.44" stroke="#9C2482"/>
<path d="M100.531 104.846C107.36 110.76 123.881 122.822 135.337 123.764" stroke="#9C2482"/>
<path d="M103.039 102.334C114.119 112.356 139.016 128.898 149.969 114.894" stroke="#9C2482"/>
<path d="M117.673 106.495C121.749 110.079 132.995 117.484 145.371 118.426" stroke="#9C2482"/>
<path d="M117.673 102.334C127.184 107.672 146.771 117.704 149.029 115.129" stroke="#9C2482"/>
<path d="M116.105 98.802C123.456 100.738 140.333 106.667 149.029 114.894" stroke="#9C2482"/>
<path d="M120.39 85.222C120.39 91.5803 136.507 104.313 149.97 114.423" stroke="#9C2482"/>
<path d="M121.644 83.5735C126.034 96.4471 155.969 111.644 150.283 114.659" stroke="#9C2482"/>
<path d="M148.402 78.7067C132.18 75.504 126.731 81.2448 126.034 84.5155C129.797 84.5155 139.03 82.8409 143.176 82.0036C149.698 82.5688 149.377 80.0412 148.402 78.7067Z" stroke="#9C2482"/>
<path d="M131.051 84.5155L139.727 91.1093" stroke="#9C2482"/>
<path d="M138.159 82.7101C139.622 90.8476 144.346 108.394 151.537 113.481" stroke="#9C2482"/>
<path d="M141.922 82.3961C141.922 90.3244 155.614 102.884 151.538 113.638" stroke="#9C2482"/>
<path d="M115.604 99.1938C114.605 93.7779 115.604 91.1011 109.153 91.1011C105.824 104.61 111.789 107.727 115.604 108.065C119.35 106.259 117.165 101.399 115.604 99.1938Z" stroke="#9C2482"/>
<path d="M180.385 111.676C199.513 114.188 233.482 104.297 244.352 103.983C252.366 104.585 268.768 107.594 270.273 114.815" stroke="#9C2482"/>
<path d="M200.244 88.3619C203.833 85.2481 214.961 80.8889 230.765 88.3619C232.611 87.5507 238.248 87.4356 246.025 93.4642C256.895 94.7986 279.032 99.6969 280.621 108.614C286.37 116.752 294.899 134.958 283.025 142.682M283.025 142.682C277.137 146.502 264.797 151.364 262.539 140.249C263.48 137.658 266.511 134.251 271.11 141.348C273.479 140.981 278.698 139.495 280.621 136.481M283.025 142.682C284.948 140.924 282.224 137.815 280.621 136.481M283.025 142.682L280.621 136.481M280.621 136.481C280.517 133.969 277.736 128.16 267.451 125.02M267.451 125.02C265.326 125.543 259.571 125.727 253.55 122.273C252.087 124.601 246.108 128.066 233.9 123.293C227.315 129.468 212.891 141.143 207.874 138.443C211.498 138.051 218.264 134.267 216.341 122.273C219.685 121.148 226.814 119.337 228.57 121.095C231.113 118.61 238.165 115.129 246.025 121.095C247.226 120.363 249.932 119.337 251.146 121.095C252.596 123.195 253.565 114.982 259.659 120.259M267.451 125.02C267.451 126.464 262.853 123.005 260.553 121.095M260.553 121.095C260.243 120.785 259.946 120.507 259.659 120.259M260.553 121.095C266.072 126.621 262.257 122.841 259.659 120.259" stroke="#9C2482"/>
<path d="M180.908 111.048C198.99 111.048 237.245 97.8601 245.397 101.785" stroke="#9C2482"/>
<path d="M227.106 26.349C222.403 26.7153 213.142 29.379 213.728 37.1031C211.637 37.077 209.421 40.7297 217.281 55.55C214.564 58.1404 209.589 64.797 211.428 70.7C208.571 72.0868 202.46 77.4665 200.871 87.8909C195.541 95.0865 183.542 109.745 178.19 110.812C187.388 113.272 205.22 119.996 202.962 127.218C203.032 130.306 204.676 138.066 210.696 144.409C209.338 149.747 208.439 163.186 215.713 174.238C215.365 179.105 212.431 189.969 203.484 194.49C200.906 195.118 196.523 197.662 199.617 202.811C196.447 205.218 188.789 207.803 183.521 198.886C186.9 190.958 186.615 174.929 158.436 174.238C156.345 173.479 152.541 171.287 154.046 168.586C144.465 169.214 127.351 164.881 135.546 142.525" stroke="#9C2482"/>
<path d="M58.1999 151.866C57.5728 146.293 67.5859 134.785 112.655 133.341C120.46 132.948 137.113 130.578 141.294 124.235" stroke="#9C2482"/>
<path d="M116.418 132.87C123.491 133.864 138.807 133.435 143.489 123.764" stroke="#9C2482"/>
<path d="M94.5733 108.3C86.797 103.465 91.3332 99.2207 94.5733 97.7031C100.427 92.4908 104.259 95.5313 105.444 97.7031C104.858 102.099 97.9529 106.599 94.5733 108.3Z" stroke="#9C2482"/>
<path d="M13.9876 67.7171C13.1863 60.286 18.0012 46.6013 43.6716 51.3111C50.3261 49.3225 67.6279 49.0818 83.5987 64.0277C92.2392 63.5829 112.321 65.3308 123.526 75.8808" stroke="#9C2482"/>
<path d="M129.066 76.7443C128.062 74.7975 124.954 75.9331 123.526 76.7443C116.753 79.5702 114.293 83.6259 113.91 85.3005C109.144 88.4404 114.084 90.586 117.15 91.2663C118.655 85.3633 122.028 82.2129 123.526 81.3756C127.289 81.1872 128.787 78.2095 129.066 76.7443Z" stroke="#9C2482"/>
<path d="M93.2147 64.5772C95.6535 59.5795 98.5453 49.333 90.6016 48.3282C89.4867 47.8049 87.5914 46.2245 88.9293 44.0894C87.9538 41.1065 87.4451 33.9632 93.2147 29.2534C90.2532 29.1225 84.7903 28.0131 86.6298 24.622C88.2673 22.4241 89.7027 16.9293 82.3444 12.5334C82.9019 11.042 84.0795 7.46251 84.3303 5.07619C87.3963 5.7565 94.448 5.92396 98.1271 1.15132C101.507 0.732667 109.917 0.931527 116.523 5.07619C117.08 7.11712 119.575 11.1048 125.094 10.728C123.456 10.8327 122.94 12.8631 133.978 20.1477C132.549 22.7643 131.992 28.2486 141.19 29.2534C140.876 34.6959 141.629 45.2825 147.148 44.0894" stroke="#9C2482"/>
<path d="M138.263 77.4507C140.214 71.9559 143.991 60.511 143.489 58.6899C144.674 51.2849 150.011 35.8314 161.885 33.2567C168.365 30.5616 183.103 23.7271 190.21 17.9497C192.614 17.9236 197.819 18.4678 199.408 20.8541C200.209 23.4707 204.822 27.4793 216.863 22.5811C221.358 22.4503 230.409 24.4022 230.66 33.2567C230.207 35.4546 227.462 40.1017 220.103 41.1065C218.988 38.8039 216.111 34.8895 213.519 37.6526" stroke="#9C2482"/>
<path d="M204.634 25.3285C197.109 28.5469 180.532 39.0341 174.428 55.236C172.895 56.7013 170.288 62.6461 172.128 74.7033" stroke="#9C2482"/>
<path d="M194.496 33.4922C193.625 35.2977 191.088 39.254 187.911 40.6355C181.953 47.1508 171.167 63.2427 175.682 75.4883" stroke="#9C2482"/>
<path d="M71.1606 116.15C86.0374 120.546 119.617 128.254 134.919 123.921C141.503 124.052 154.422 122.681 153.419 116.15" stroke="#9C2482"/>
<path d="M70.7427 115.443C67.3632 115.208 59.2872 112.775 54.0193 104.925" stroke="#9C2482"/>
<path d="M53.3921 105.317C54.8206 104.768 56.8204 102.695 53.3921 98.802C50.9184 96.9181 44.6541 93.3072 39.3863 93.9352C33.2195 84.9603 18.2939 67.7485 7.92539 70.7C2.69933 73.709 -4.61716 80.779 7.92539 84.9865C11.1655 83.9137 17.4368 80.2138 16.6007 73.9968" stroke="#9C2482"/>
<path d="M8.02988 70.386C12.3849 68.0573 24.0007 63.9335 35.6235 66.0687C46.8769 68.6067 72.6658 76.6815 85.7936 88.6759C90.1835 90.8738 99.026 94.94 99.2769 93.6212" stroke="#9C2482"/>
<path d="M154.464 124.471L146.207 135.303C140.667 138.914 128.585 146.136 124.571 146.136C119.554 146.136 97.291 151.16 96.2458 148.648C95.2006 146.136 89.3474 149.511 86.8389 151.16C84.3304 152.808 76.8048 153.515 80.254 157.047C83.7032 160.579 67.1889 160.03 64.994 170.627" stroke="#9C2482"/>
<path d="M64.3668 169.921C64.4713 174.343 64.2414 183.736 62.4854 185.934C60.2905 188.682 71.1607 195.511 73.0421 194.098C74.9234 192.685 82.1354 194.883 82.1354 185.934" stroke="#9C2482"/>
<path d="M81.5082 186.17C79.383 186.798 74.4008 187.394 71.4742 184.757C69.2096 186.17 64.4922 188.43 63.7396 186.17" stroke="#9C2482"/>
<path d="M63.7398 187.74C59.3499 189.231 49.3159 188.65 44.2989 174.395C40.3271 169.868 33.3869 159.59 37.4005 154.692C40.0135 148.517 46.6193 134.801 52.138 129.337C54.3329 129.39 59.0364 127.909 60.2906 121.566C67.4817 116.856 71.1608 115.993 72.1015 116.15" stroke="#9C2482"/>
<path d="M71.6833 85.1435C76.9791 87.5769 88.4485 92.8362 91.9605 94.4062" stroke="#9C2482"/>
<path d="M65.412 79.9626C66.6314 80.329 69.2166 81.2814 69.8019 82.1606" stroke="#9C2482"/>
<path d="M175.159 87.8124C155.927 66.5396 166.867 72.6363 165.23 70.3075L172.442 75.4098C177.324 78.1729 179.005 82.6316 179.235 84.5155C180.741 88.9742 177.145 88.5712 175.159 87.8124Z" stroke="#9C2482"/>
<path d="M168.365 79.8842C166.275 83.9137 162.408 90.6383 164.603 102.805C164.603 109.085 163.139 110.985 158.122 112.618" stroke="#9C2482"/>
</svg>
