<svg width="92" height="52" viewBox="0 0 92 52" fill="none" xmlns="http://www.w3.org/2000/svg">
<path d="M33.5405 3.80298C36.2624 5.57182 42.0198 11.2129 43.2741 19.6264" stroke="#F5F5F5"/>
<path d="M37.4932 9.10938C39.2352 11.6345 42.8041 17.2576 43.1438 19.5494" stroke="#F5F5F5"/>
<path d="M49.2842 31.6045C50.8411 33.4695 55.0655 37.8685 59.5077 40.5448C60.6835 42.0381 62.6825 45.5399 61.2715 47.6009" stroke="#F5F5F5"/>
<path d="M50.46 31.4507C51.0697 32.6493 52.7333 35.2542 54.5102 36.0849" stroke="#F5F5F5"/>
<path d="M54.4775 36.0842C56.2413 37.2123 59.7363 39.6878 59.6056 40.5646" stroke="#F5F5F5"/>
<path d="M48.8267 29.8166C49.7739 30.6755 52.1909 31.8203 54.2814 29.5282M54.2814 29.5282C54.3358 28.7398 54.7778 27.5206 56.1105 28.9513C56.2302 30.1563 56.2019 32.4741 55.1306 32.1049C55.2068 31.246 55.1437 29.5282 54.2814 29.5282Z" stroke="#F5F5F5"/>
<path d="M55.0327 30.5085C53.748 31.0918 50.7866 32.0315 49.2188 31.1239" stroke="#F5F5F5"/>
<path d="M54.1838 21.1069C53.8245 21.7094 53.1256 23.4721 53.2039 25.7027C53.0951 26.6001 52.4331 28.3717 50.6562 28.2794" stroke="#F5F5F5"/>
<path d="M56.5024 27.8745C56.5024 27.8745 55.3657 27.2323 50.9497 28.2784" stroke="#F5F5F5"/>
<path d="M49.2188 21.3953C49.9047 23.8886 50.865 28.8216 49.2188 28.6062" stroke="#F5F5F5"/>
<path d="M49.2185 19.2803C48.0688 18.1727 46.8015 18.4727 46.3115 18.7611C47.6442 19.2534 48.5435 20.6071 48.8266 21.2225C50.0808 22.1762 51.0912 21.7737 51.4396 21.4532C51.2044 20.4841 49.8609 19.6008 49.2185 19.2803Z" stroke="#F5F5F5"/>
<path d="M48.6306 20.8376C46.4749 23.1259 49.5059 28.3255 48.0426 28.0486" stroke="#F5F5F5"/>
<path d="M32.1035 26.4326C34.2375 27.8812 39.4004 30.8361 42.9803 31.0668" stroke="#F5F5F5"/>
<path d="M32.8877 25.8174C36.35 28.2723 44.1303 32.3245 47.5533 28.894" stroke="#F5F5F5"/>
<path d="M37.4604 26.8364C38.7343 27.7146 42.2488 29.5285 46.1161 29.7593" stroke="#F5F5F5"/>
<path d="M37.4604 25.8174C40.4328 27.125 46.5538 29.5824 47.2593 28.9517" stroke="#F5F5F5"/>
<path d="M36.9702 24.9521C39.2675 25.4265 44.5415 26.8789 47.259 28.8941" stroke="#F5F5F5"/>
<path d="M38.3096 21.626C38.3096 23.1835 43.3462 26.3025 47.5532 28.7792" stroke="#F5F5F5"/>
<path d="M38.7017 21.2222C40.0735 24.3753 49.4281 28.0976 47.6513 28.8359" stroke="#F5F5F5"/>
<path d="M47.0626 20.0302C41.9933 19.2456 40.2905 20.6519 40.0728 21.4531C41.2486 21.4531 44.1338 21.0429 45.4295 20.8378C47.4676 20.9763 47.3675 20.3571 47.0626 20.0302Z" stroke="#F5F5F5"/>
<path d="M41.6411 21.4529L44.3521 23.0681" stroke="#F5F5F5"/>
<path d="M43.8623 21.0107C44.3196 23.0039 45.7959 27.3017 48.0432 28.5475" stroke="#F5F5F5"/>
<path d="M45.0381 20.9338C45.0381 22.8757 49.3169 25.952 48.0431 28.586" stroke="#F5F5F5"/>
<path d="M36.8142 25.0484C36.502 23.7216 36.8142 23.0659 34.7982 23.0659C33.7577 26.3751 35.6219 27.1388 36.8142 27.2214C37.9847 26.7792 37.3019 25.5884 36.8142 25.0484Z" stroke="#F5F5F5"/>
<path d="M57.0576 28.1056C63.0349 28.721 73.6504 26.2981 77.0473 26.2212C79.5514 26.3686 84.6773 27.1057 85.1477 28.8748" stroke="#F5F5F5"/>
<path d="M63.2642 22.3949C64.3856 21.6323 67.8631 20.5646 72.8017 22.3949C73.3788 22.1962 75.1404 22.168 77.5705 23.6446C80.9674 23.9715 87.8854 25.1712 88.3819 27.3554C90.1784 29.3485 92.8437 33.8078 89.1332 35.6996M89.1332 35.6996C87.2931 36.6353 83.4367 37.8261 82.7312 35.1036C83.0252 34.4692 83.9724 33.6347 85.4096 35.3728C86.1499 35.2831 87.7809 34.9191 88.3819 34.1808M89.1332 35.6996C89.7341 35.269 88.8827 34.5076 88.3819 34.1808M89.1332 35.6996L88.3819 34.1808M88.3819 34.1808C88.3492 33.5655 87.4804 32.1427 84.2664 31.3737M84.2664 31.3737C83.6022 31.5019 81.8036 31.5467 79.9222 30.7008C79.4649 31.2711 77.5966 32.1197 73.7816 30.9507C71.7238 32.4632 67.2164 35.3228 65.6485 34.6614C66.7809 34.5653 68.8952 33.6386 68.2942 30.7008C69.3395 30.4252 71.5671 29.9817 72.1158 30.4124C72.9106 29.8035 75.1142 28.9512 77.5705 30.4124C77.9459 30.2329 78.7916 29.9817 79.171 30.4124C79.624 30.9265 79.9268 28.9151 81.8313 30.2076M84.2664 31.3737C84.2664 31.7275 82.8292 30.8802 82.1106 30.4124M82.1106 30.4124C82.0139 30.3364 81.9208 30.2684 81.8313 30.2076M82.1106 30.4124C83.8352 31.7659 82.643 30.8399 81.8313 30.2076" stroke="#F5F5F5"/>
<path d="M57.2212 27.9519C62.8719 27.9519 74.8265 24.7214 77.3742 25.6829" stroke="#F5F5F5"/>
<path d="M71.658 7.20605C70.1881 7.29578 67.2942 7.9482 67.4771 9.84008C66.8239 9.83367 66.1314 10.7283 68.5877 14.3583C67.7384 14.9928 66.1837 16.6232 66.7585 18.069C65.8658 18.4087 63.9561 19.7263 63.4596 22.2796C61.7938 24.0421 58.0441 27.6323 56.3717 27.8938C59.2461 28.4962 64.8184 30.1433 64.1128 31.9121C64.1346 32.6683 64.6485 34.5692 66.5299 36.1227C66.1053 37.4301 65.8244 40.7217 68.0977 43.4288C67.9888 44.6208 67.0721 47.2817 64.2762 48.3892C63.4705 48.543 62.1008 49.1659 63.0676 50.4272C62.0769 51.0168 59.6838 51.65 58.0376 49.4659C59.0937 47.524 59.0044 43.598 50.1985 43.4288C49.5452 43.2429 48.3563 42.7058 48.8266 42.0445C45.8325 42.1983 40.4845 41.137 43.0453 35.6613" stroke="#F5F5F5"/>
<path d="M18.8752 37.9503C18.6792 36.585 21.8083 33.766 35.8925 33.4122C38.3314 33.3161 43.5356 32.7354 44.8422 31.1816" stroke="#F5F5F5"/>
<path d="M37.0684 33.2967C39.2785 33.5403 44.0647 33.4352 45.528 31.0662" stroke="#F5F5F5"/>
<path d="M30.2417 27.279C27.8116 26.0944 29.2291 25.0548 30.2417 24.683C32.0708 23.4062 33.2685 24.151 33.6386 24.683C33.4557 25.7599 31.2978 26.8623 30.2417 27.279Z" stroke="#F5F5F5"/>
<path d="M5.05848 17.3392C4.80807 15.5188 6.31274 12.1665 14.3347 13.3203C16.4143 12.8331 21.8211 12.7742 26.812 16.4354C29.5121 16.3264 35.7877 16.7546 39.2892 19.339" stroke="#F5F5F5"/>
<path d="M41.0204 19.5494C40.7068 19.0726 39.7356 19.3507 39.2892 19.5494C37.1727 20.2417 36.404 21.2352 36.2843 21.6454C34.7948 22.4146 36.3387 22.9402 37.2968 23.1068C37.7672 21.6608 38.8211 20.8891 39.2892 20.684C40.4651 20.6378 40.9333 19.9084 41.0204 19.5494Z" stroke="#F5F5F5"/>
<path d="M29.8173 16.5694C30.5794 15.3453 31.4831 12.8356 29.0007 12.5895C28.6523 12.4613 28.06 12.0742 28.4781 11.5513C28.1733 10.8207 28.0143 9.07105 29.8173 7.91746C28.8919 7.88542 27.1847 7.61368 27.7595 6.7831C28.2713 6.24476 28.7198 4.8989 26.4203 3.82222C26.5946 3.45692 26.9626 2.58019 27.0409 1.9957C27.9991 2.16233 30.2027 2.20335 31.3524 1.03438C32.4085 0.931836 35.0368 0.980543 37.1011 1.9957C37.2753 2.49559 38.0549 3.4723 39.7795 3.38001C39.2677 3.40565 39.1066 3.90297 42.5558 5.68719C42.1094 6.32807 41.9352 7.67136 44.8095 7.91746C44.7116 9.2505 44.9467 11.8435 46.6713 11.5513" stroke="#F5F5F5"/>
<path d="M43.8945 19.7226C44.5042 18.3767 45.6845 15.5735 45.5277 15.1274C45.8979 13.3137 47.5658 9.52869 51.2763 8.89806C53.3014 8.23795 57.9069 6.56397 60.128 5.1489C60.8792 5.14249 62.5058 5.27579 63.0023 5.86028C63.2527 6.50116 64.6942 7.48299 68.457 6.28326C69.8615 6.25122 72.6901 6.72932 72.7685 8.89806C72.627 9.43641 71.769 10.5746 69.4696 10.8207C69.1212 10.2567 68.2218 9.29797 67.4118 9.97475" stroke="#F5F5F5"/>
<path d="M64.6357 6.95605C62.2839 7.74434 57.1036 10.313 55.1961 14.2813C54.717 14.6402 53.9026 16.0963 54.4775 19.0495" stroke="#F5F5F5"/>
<path d="M61.4674 8.95581C61.1952 9.39802 60.4026 10.367 59.4097 10.7054C57.5479 12.3012 54.1771 16.2427 55.5881 19.242" stroke="#F5F5F5"/>
<path d="M22.9253 29.2012C27.5743 30.278 38.0678 32.1663 42.8496 31.1049C44.9074 31.1369 48.9445 30.801 48.631 29.2012" stroke="#F5F5F5"/>
<path d="M22.7944 29.0286C21.7383 28.9709 19.2146 28.3748 17.5684 26.4519" stroke="#F5F5F5"/>
<path d="M17.3725 26.548C17.8189 26.4134 18.4439 25.9059 17.3725 24.9522C16.5995 24.4908 14.6419 23.6064 12.9957 23.7602C11.0686 21.562 6.40434 17.3462 3.16418 18.0691C1.53104 18.8062 -0.755362 20.5378 3.16418 21.5684C4.17673 21.3056 6.13651 20.3994 5.87521 18.8767" stroke="#F5F5F5"/>
<path d="M3.19678 17.9924C4.55773 17.4219 8.18766 16.4117 11.8198 16.9348C15.3365 17.5565 23.3955 19.5345 27.498 22.4728C28.8698 23.0112 31.6331 24.0072 31.7115 23.6842" stroke="#F5F5F5"/>
<path d="M48.9579 31.2393L46.3776 33.8925C44.6464 34.7769 40.8706 36.5458 39.6164 36.5458C38.0485 36.5458 31.0914 37.7763 30.7647 37.161C30.4381 36.5458 28.609 37.3725 27.8251 37.7763C27.0412 38.18 24.6894 38.3531 25.7673 39.2183C26.8452 40.0834 21.6845 39.9489 20.9985 42.5444" stroke="#F5F5F5"/>
<path d="M20.8025 42.3713C20.8351 43.4546 20.7633 45.7557 20.2146 46.2941C19.5286 46.9671 22.9256 48.64 23.5135 48.2939C24.1014 47.9478 26.3552 48.4862 26.3552 46.2941" stroke="#F5F5F5"/>
<path d="M26.1586 46.3513C25.4945 46.5051 23.9376 46.6512 23.023 46.0051C22.3153 46.3513 20.8411 46.905 20.606 46.3513" stroke="#F5F5F5"/>
<path d="M20.6062 46.7357C19.2344 47.101 16.0987 46.9588 14.5309 43.4672C13.2897 42.3585 11.1209 39.8411 12.3752 38.6414C13.1918 37.1289 15.2561 33.7694 16.9807 32.4312C17.6666 32.4441 19.1364 32.0813 19.5284 30.5278C21.7756 29.3742 22.9253 29.1627 23.2193 29.2012" stroke="#F5F5F5"/>
<path d="M23.0884 21.6067C24.7433 22.2028 28.3275 23.4911 29.425 23.8757" stroke="#F5F5F5"/>
<path d="M21.1284 20.3379C21.5095 20.4276 22.3173 20.6609 22.5003 20.8763" stroke="#F5F5F5"/>
<path d="M55.4245 22.261C49.4146 17.0499 52.8333 18.5434 52.3216 17.9729L54.5753 19.2228C56.1012 19.8997 56.6265 20.9919 56.6984 21.4534C57.1687 22.5456 56.0451 22.4469 55.4245 22.261Z" stroke="#F5F5F5"/>
<path d="M53.3015 20.3186C52.6483 21.3056 51.4398 22.9526 52.1257 25.9327C52.1257 27.4709 51.6684 27.9361 50.1006 28.336" stroke="#F5F5F5"/>
</svg>
